<svg xmlns="http://www.w3.org/2000/svg" xmlns:xlink="http://www.w3.org/1999/xlink" id="svg8" width="16" height="16" version="1.1" viewBox="0 0 16 16"><metadata id="metadata14"/><defs id="defs12"><clipPath id="1"><path id="path6" fill="#1890d0" d="m -24,13 c 0,1.105 -0.672,2 -1.5,2 -0.828,0 -1.5,-0.895 -1.5,-2 0,-1.105 0.672,-2 1.5,-2 0.828,0 1.5,0.895 1.5,2" transform="matrix(15.33333,0,0,11.5,415,-125.5)"/></clipPath><linearGradient id="2" x1="23.262" x2="22.869" y1="46" y2=".558" gradientTransform="matrix(0.98013544,0,0,0.98013544,3.4229515,0.13742516)" gradientUnits="userSpaceOnUse"><stop id="stop26" stop-color="#ff433a"/><stop id="stop28" offset="1" stop-color="#ff9436"/></linearGradient><clipPath id="1-6"><path id="path6-7" fill="#1890d0" d="m -24,13 c 0,1.105 -0.672,2 -1.5,2 -0.828,0 -1.5,-0.895 -1.5,-2 0,-1.105 0.672,-2 1.5,-2 0.828,0 1.5,0.895 1.5,2" transform="matrix(15.33333,0,0,11.5,415,-125.5)"/></clipPath><linearGradient id="2-5" x1="23.262" x2="22.869" y1="46" y2=".558" gradientUnits="userSpaceOnUse" xlink:href="#2"><stop id="stop26-3" stop-color="#ff433a"/><stop id="stop28-5" offset="1" stop-color="#ff9436"/></linearGradient><clipPath id="1-6-7"><path id="path6-7-5" fill="#1890d0" d="m -24,13 c 0,1.105 -0.672,2 -1.5,2 -0.828,0 -1.5,-0.895 -1.5,-2 0,-1.105 0.672,-2 1.5,-2 0.828,0 1.5,0.895 1.5,2" transform="matrix(15.33333,0,0,11.5,415,-125.5)"/></clipPath></defs><path id="path37-9" fill="#f37021" fill-opacity="1" stroke-width=".441" d="m 6.0276196,0.5 c -0.6961559,0 -1.2573153,0.5673363 -1.2573153,1.2683453 0,0.48925 0.2770511,0.9083557 0.6789507,1.1201143 L 5.0442668,5.7802868 c -0.06353,-0.00311 -0.1261726,-0.00927 -0.1905828,-0.00927 -2.0889099,0 -3.777684,1.7037739 -3.777684,3.8067996 0,2.1030266 1.6931849,3.8085676 3.777684,3.8085676 0.9568839,0 1.8268584,-0.360872 2.4916914,-0.951148 l 0.3842532,1.525983 c -0.2157285,0.153085 -0.3569011,0.405871 -0.3569011,0.69351 0,0.466752 0.3732254,0.845269 0.8373285,0.845269 0.4645456,0 0.8382116,-0.378517 0.8382116,-0.845269 0,-0.468957 -0.374107,-0.847035 -0.8382116,-0.847035 -0.041029,0 -0.080288,0.0061 -0.1195556,0.01191 L 7.6612488,12.118919 c 0.6004239,-0.674538 0.9683538,-1.563043 0.9683538,-2.5411014 0,-0.02205 -0.0031,-0.043682 -0.0035,-0.065293 L 11.131864,7.4342033 c 0.381166,0.5285142 0.995706,0.8743865 1.694069,0.8743865 1.160701,0 2.098173,-0.946737 2.098173,-2.1162615 0,-1.1668778 -0.938355,-2.1136151 -2.098173,-2.1136151 -1.160702,0 -2.098176,0.9467373 -2.098176,2.1136151 0,0.307932 0.06838,0.5986587 0.185289,0.8624747 L 8.5806256,8.9893074 C 8.4628224,8.2238876 8.1200403,7.5356728 7.6206433,6.9930413 l 0.271315,-0.7376256 c 0.1314668,0.059998 0.276168,0.095733 0.4292518,0.095733 0.5788065,0 1.0477635,-0.473368 1.0477635,-1.0570279 0,-0.5836591 -0.470721,-1.0565865 -1.0477635,-1.0565865 -0.5810123,0 -1.0504094,0.472486 -1.0504094,1.0565865 0,0.2611694 0.098379,0.498074 0.2549918,0.6824806 L 7.2752113,6.6581987 C 6.7678741,6.2302697 6.1467152,5.9382194 5.4646771,5.8257229 L 5.8568708,3.0212455 c 0.05603,0.0075 0.1116115,0.017203 0.1698491,0.017203 0.6961546,0 1.2595217,-0.5682185 1.2595217,-1.2692273 0,-0.7010094 -0.5633671,-1.26834574 -1.2595217,-1.26834574" display="inline"/></svg>