<svg xmlns="http://www.w3.org/2000/svg" xmlns:xlink="http://www.w3.org/1999/xlink" id="svg8" width="40" height="40" version="1.1" viewBox="0 0 40 40"><metadata id="metadata14"/><defs id="defs12"><clipPath id="1"><path id="path6" fill="#1890d0" d="m -24,13 c 0,1.105 -0.672,2 -1.5,2 -0.828,0 -1.5,-0.895 -1.5,-2 0,-1.105 0.672,-2 1.5,-2 0.828,0 1.5,0.895 1.5,2" transform="matrix(15.33333,0,0,11.5,415,-125.5)"/></clipPath><linearGradient id="2" x1="23.262" x2="22.869" y1="46" y2=".558" gradientTransform="matrix(0.98013544,0,0,0.98013544,3.4229515,0.13742516)" gradientUnits="userSpaceOnUse"><stop id="stop26" stop-color="#ff433a"/><stop id="stop28" offset="1" stop-color="#ff9436"/></linearGradient><clipPath id="1-6"><path id="path6-7" fill="#1890d0" d="m -24,13 c 0,1.105 -0.672,2 -1.5,2 -0.828,0 -1.5,-0.895 -1.5,-2 0,-1.105 0.672,-2 1.5,-2 0.828,0 1.5,0.895 1.5,2" transform="matrix(15.33333,0,0,11.5,415,-125.5)"/></clipPath><linearGradient id="2-5" x1="23.262" x2="22.869" y1="46" y2=".558" gradientUnits="userSpaceOnUse" xlink:href="#2"><stop id="stop26-3" stop-color="#ff433a"/><stop id="stop28-5" offset="1" stop-color="#ff9436"/></linearGradient><clipPath id="1-6-7"><path id="path6-7-5" fill="#1890d0" d="m -24,13 c 0,1.105 -0.672,2 -1.5,2 -0.828,0 -1.5,-0.895 -1.5,-2 0,-1.105 0.672,-2 1.5,-2 0.828,0 1.5,0.895 1.5,2" transform="matrix(15.33333,0,0,11.5,415,-125.5)"/></clipPath></defs><path id="path37-9" fill="#f37021" fill-opacity="1" stroke-width="1.103" d="m 15.068888,1.2500399 c -1.740389,0 -3.143288,1.41834 -3.143288,3.170862 0,1.223125 0.692628,2.2708911 1.697377,2.8002881 l -1.012471,7.229568 c -0.158825,-0.0078 -0.315431,-0.02325 -0.476457,-0.02325 -5.2222741,0 -9.4442091,4.259435 -9.4442091,9.516998 0,5.257566 4.2329619,9.521419 9.4442091,9.521419 2.39221,0 4.567146,-0.90218 6.229229,-2.37787 l 0.960633,3.814957 c -0.539321,0.382713 -0.892253,1.014678 -0.892253,1.733775 0,1.16688 0.933064,2.113173 2.093321,2.113173 1.161364,0 2.095529,-0.946293 2.095529,-2.113173 0,-1.172392 -0.935267,-2.117587 -2.095529,-2.117587 -0.102572,0 -0.20072,0.01525 -0.298889,0.02978 l -1.073129,-4.251638 c 1.50106,-1.686345 2.420885,-3.907606 2.420885,-6.352751 0,-0.05513 -0.0078,-0.1092 -0.0087,-0.163225 l 6.264404,-5.195805 c 0.952915,1.321285 2.489265,2.185967 4.23517,2.185967 2.90176,0 5.24544,-2.366842 5.24544,-5.290655 0,-2.917194 -2.34589,-5.284037 -5.24544,-5.284037 -2.901752,0 -5.245437,2.366843 -5.245437,5.284037 0,0.769831 0.17095,1.496648 0.463223,2.156188 l -5.831053,4.836247 C 21.156945,20.559761 20.29999,18.839223 19.051498,17.482643 l 0.678287,-1.844062 c 0.328667,0.15 0.69042,0.239325 1.07313,0.239325 1.447016,0 2.619409,-1.18342 2.619409,-2.64257 0,-1.459147 -1.176803,-2.641468 -2.619409,-2.641468 -1.452531,0 -2.626024,1.181215 -2.626024,2.641468 0,0.652922 0.245948,1.245185 0.63748,1.7062 l -0.626453,1.704002 c -1.268343,-1.069822 -2.821241,-1.79995 -4.526336,-2.08119 l 0.980484,-7.011196 c 0.140075,0.01875 0.279029,0.043 0.424623,0.043 1.740387,0 3.148804,-1.4205451 3.148804,-3.1730671 0,-1.752523 -1.408417,-3.170865 -3.148804,-3.170865" display="inline"/></svg>